<?xml version="1.0" encoding="UTF-8"?>
<!DOCTYPE svg PUBLIC "-//W3C//DTD SVG 1.1//EN" "http://www.w3.org/Graphics/SVG/1.1/DTD/svg11.dtd">
<svg xmlns="http://www.w3.org/2000/svg" version="1.1" width="512px" height="512px" style="shape-rendering:geometricPrecision; text-rendering:geometricPrecision; image-rendering:optimizeQuality; fill-rule:evenodd; clip-rule:evenodd" xmlns:xlink="http://www.w3.org/1999/xlink">
<g><path style="opacity:0.96" fill="#020000" d="M 459.5,85.5 C 456.66,88.1428 453.327,88.9761 449.5,88C 402.421,58.9453 354.087,56.9453 304.5,82C 288.402,91.0535 273.736,102.053 260.5,115C 257.167,117 253.833,117 250.5,115C 217.372,81.1181 177.039,64.2848 129.5,64.5C 86.493,67.4148 53.3264,86.7481 30,122.5C 13.1465,154.042 9.81315,187.042 20,221.5C 30.8231,255.162 47.8231,285.162 71,311.5C 88.732,331.233 107.732,349.567 128,366.5C 129.821,369.904 129.654,373.237 127.5,376.5C 124.061,378.958 120.394,379.125 116.5,377C 80.5293,348.711 50.6959,315.211 27,276.5C 12.9364,252.469 3.76974,226.802 -0.5,199.5C -0.5,187.833 -0.5,176.167 -0.5,164.5C 12.4984,98.3404 52.4984,60.1737 119.5,50C 162.994,46.3718 202.328,57.3718 237.5,83C 243.645,87.6436 249.645,92.477 255.5,97.5C 284.484,71.1784 318.484,55.3451 357.5,50C 393.45,46.2382 426.45,54.2382 456.5,74C 460.483,77.0405 461.483,80.8738 459.5,85.5 Z"/></g>
<g><path style="opacity:1" fill="#fb5859" d="M 129.5,64.5 C 177.039,64.2848 217.372,81.1181 250.5,115C 253.833,117 257.167,117 260.5,115C 273.736,102.053 288.402,91.0535 304.5,82C 354.087,56.9453 402.421,58.9453 449.5,88C 453.327,88.9761 456.66,88.1428 459.5,85.5C 463.14,88.4729 466.473,91.8062 469.5,95.5C 467.707,98.2587 467.207,101.259 468,104.5C 496.022,139.302 503.689,178.302 491,221.5C 482.447,248.944 469.447,273.944 452,296.5C 414.962,341.552 371.795,379.385 322.5,410C 304.937,421.28 286.937,431.78 268.5,441.5C 208.452,410.524 155.285,370.191 109,320.5C 87.4536,296.091 70.4536,268.757 58,238.5C 47.8335,212.335 44.8335,185.335 49,157.5C 59.6098,112.394 86.4431,81.3945 129.5,64.5 Z"/></g>
<g><path style="opacity:1" fill="#d74143" d="M 129.5,64.5 C 86.4431,81.3945 59.6098,112.394 49,157.5C 44.8335,185.335 47.8335,212.335 58,238.5C 70.4536,268.757 87.4536,296.091 109,320.5C 155.285,370.191 208.452,410.524 268.5,441.5C 263.845,445.329 258.511,447.162 252.5,447C 216.985,428.754 183.318,407.754 151.5,384C 146.805,381.743 142.472,382.243 138.5,385.5C 135.149,382.152 131.482,379.152 127.5,376.5C 129.654,373.237 129.821,369.904 128,366.5C 107.732,349.567 88.732,331.233 71,311.5C 47.8231,285.162 30.8231,255.162 20,221.5C 9.81315,187.042 13.1465,154.042 30,122.5C 53.3264,86.7481 86.493,67.4148 129.5,64.5 Z"/></g>
<g><path style="opacity:0.958" fill="#020000" d="M 511.5,165.5 C 511.5,176.5 511.5,187.5 511.5,198.5C 505.329,236.837 490.496,271.504 467,302.5C 437.304,340.533 402.804,373.366 363.5,401C 331.389,423.75 297.722,444.083 262.5,462C 253.464,463.761 245.131,462.095 237.5,457C 203.987,438.417 171.654,418.084 140.5,396C 137.67,392.857 137.003,389.357 138.5,385.5C 142.472,382.243 146.805,381.743 151.5,384C 183.318,407.754 216.985,428.754 252.5,447C 258.511,447.162 263.845,445.329 268.5,441.5C 286.937,431.78 304.937,421.28 322.5,410C 371.795,379.385 414.962,341.552 452,296.5C 469.447,273.944 482.447,248.944 491,221.5C 503.689,178.302 496.022,139.302 468,104.5C 467.207,101.259 467.707,98.2587 469.5,95.5C 472.642,93.0389 475.975,92.8723 479.5,95C 497.601,115.14 508.267,138.64 511.5,165.5 Z"/></g>
<g><path style="opacity:1" fill="#030000" d="M 159.5,234.5 C 163.426,234.047 166.592,235.38 169,238.5C 169.667,246.5 169.667,254.5 169,262.5C 164.585,267.726 160.251,267.726 156,262.5C 155.333,254.5 155.333,246.5 156,238.5C 157.376,237.295 158.542,235.962 159.5,234.5 Z"/></g>
<g><path style="opacity:1" fill="#030000" d="M 345.5,234.5 C 349.426,234.047 352.592,235.38 355,238.5C 355.667,246.5 355.667,254.5 355,262.5C 350.585,267.726 346.251,267.726 342,262.5C 341.333,254.5 341.333,246.5 342,238.5C 343.376,237.295 344.542,235.962 345.5,234.5 Z"/></g>
<g><path style="opacity:1" fill="#060101" d="M 229.5,250.5 C 231.527,250.338 233.527,250.505 235.5,251C 248.762,263.617 262.095,263.617 275.5,251C 283.788,249.709 286.955,253.209 285,261.5C 275.242,272.31 263.075,276.81 248.5,275C 239.368,273.185 231.868,268.685 226,261.5C 224.663,256.872 225.83,253.205 229.5,250.5 Z"/></g>
</svg>
